<mxfile host="Electron" modified="2024-12-08T21:50:38.702Z" agent="Mozilla/5.0 (Windows NT 10.0; Win64; x64) AppleWebKit/537.36 (KHTML, like Gecko) draw.io/24.6.4 Chrome/124.0.6367.207 Electron/30.0.6 Safari/537.36" etag="d45B-aEKcDX-oXK4TX3S" version="24.6.4" type="device">
  <diagram name="Page-1" id="p-XI_9rVE68FcuxL-inJ">
    <mxGraphModel dx="1698" dy="863" grid="1" gridSize="10" guides="1" tooltips="1" connect="1" arrows="1" fold="1" page="1" pageScale="1" pageWidth="850" pageHeight="1100" math="0" shadow="0">
      <root>
        <mxCell id="0" />
        <mxCell id="1" parent="0" />
        <mxCell id="1ZLa-YY0p41HTtgduNe5-3" style="edgeStyle=orthogonalEdgeStyle;rounded=0;orthogonalLoop=1;jettySize=auto;html=1;entryX=0;entryY=0.5;entryDx=0;entryDy=0;" edge="1" parent="1" source="1ZLa-YY0p41HTtgduNe5-1" target="1ZLa-YY0p41HTtgduNe5-2">
          <mxGeometry relative="1" as="geometry" />
        </mxCell>
        <mxCell id="1ZLa-YY0p41HTtgduNe5-1" value="Client App&lt;br&gt;(Angular frontend)" style="rounded=1;whiteSpace=wrap;html=1;" vertex="1" parent="1">
          <mxGeometry x="90" y="230" width="140" height="80" as="geometry" />
        </mxCell>
        <mxCell id="1ZLa-YY0p41HTtgduNe5-5" style="edgeStyle=orthogonalEdgeStyle;rounded=0;orthogonalLoop=1;jettySize=auto;html=1;entryX=0;entryY=0.5;entryDx=0;entryDy=0;" edge="1" parent="1" source="1ZLa-YY0p41HTtgduNe5-2" target="1ZLa-YY0p41HTtgduNe5-4">
          <mxGeometry relative="1" as="geometry" />
        </mxCell>
        <mxCell id="1ZLa-YY0p41HTtgduNe5-2" value="Backend App&lt;br&gt;(FastAPI)" style="rounded=1;whiteSpace=wrap;html=1;" vertex="1" parent="1">
          <mxGeometry x="350" y="230" width="140" height="80" as="geometry" />
        </mxCell>
        <mxCell id="1ZLa-YY0p41HTtgduNe5-4" value="AI project&lt;br&gt;(BookPredictor API, Yolo + Moondream2)" style="rounded=1;whiteSpace=wrap;html=1;" vertex="1" parent="1">
          <mxGeometry x="560" y="230" width="180" height="80" as="geometry" />
        </mxCell>
      </root>
    </mxGraphModel>
  </diagram>
</mxfile>
